#!OML:ASF F:\VICON\USERDATA\INSTALL\rory3\rory3.ASF
:FULLY-SPECIFIED
:DEGREES
90
root 0.17052444148253615 17.757665581460166 42.81132800399211 -3.8317007696487932 -5.960735065835291 -2.814232616461643
lfemur -19.86950388595929 -1.7342399930455992 -19.016549019564806
ltibia 34.9468489152365
lfoot -5.266747292015555 0.9148630828232727
ltoes -4.70047753239201
rfemur -5.178624829226256 3.0682554285851182 25.51393985753782
rtibia 47.54779062380578
rfoot -3.552568880887117 -4.357289027114931
rtoes 4.435326078602035
lowerback 9.748048349712661 1.9637470206112253 2.0882598534352184
upperback 0.4578902989441056 3.3629005242309415 1.169343943444871
thorax -4.9281279933293725 1.2814956458232594 -0.36604134810105216
lowerneck -16.705623000946815 -2.838960711712257 -1.9272789234764707
upperneck 19.97778437649516 -3.529636794296407 1.632921528905142
head 9.192756300332315 -1.803402296410538 0.2862616570762557
lclavicle -1.952115985593769e-15 9.078050100533128e-16
lhumerus -38.09193301430762 8.160202600368816 80.69967623560753
lradius 21.993065020923353
lwrist 3.504631075877402
lhand -26.917926073944546 23.813128099271985
lfingers 7.12502
lthumb -0.20630857220993393 54.409544055152196
rclavicle -1.953474434027362e-15 9.065538929497823e-16
rhumerus -26.500156915985826 -16.491566414714033 -80.97472642052712
rradius 26.26420129603816
rwrist 4.989187215430437
rhand -17.909312239393927 22.472718564927767
rfingers 7.12502
rthumb 8.450106213924865 -7.173669081307197
91
root 0.19891990449462466 17.801316356671713 43.443834854101524 -4.094438940126176 -5.439951468848474 -1.9810931795158058
lfemur -16.66740219590416 -1.7421624805988776 -21.120223846620462
ltibia 34.25723571371795
lfoot -5.904882541902566 1.0584423755716683
ltoes -5.252225599175194
rfemur -8.596615491089835 2.5634331936146855 24.35681699819545
rtibia 47.722968006548925
rfoot -3.1218596428824936 -4.600291607576051
rtoes 4.373895572653864
lowerback 9.873848865942545 1.7214023895230337 1.4142926654918662
upperback 0.522706223813699 3.108104309004861 1.0258709271879
thorax -4.953096614428148 1.1152412763831812 -0.13531929419900857
lowerneck -16.683142758597 -2.84573965588734 -1.927303991986881
upperneck 19.932301373688247 -3.549405639307159 1.5882627541244567
head 9.186291252421514 -1.8034903964986262 0.2947603758247733
lclavicle -1.9521159855937687e-15 9.07805010053313e-16
lhumerus -37.55964270298418 7.54632533201469 80.98124482386119
lradius 22.249990537878002
lwrist 3.694516151391996
lhand -26.942049994352224 23.77800593379805
lfingers 7.12502
lthumb -0.1957589398164733 54.44129164683342
rclavicle -1.953474434027362e-15 9.065538929497823e-16
rhumerus -26.942582233632685 -17.251225960894693 -80.70722823462077
rradius 26.322581511231594
rwrist 4.762924644184316
rhand -17.87499202482597 22.547420453546763
rfingers 7.12502
rthumb 8.444097711526098 -7.167717705700284
92
root 0.21182263724157238 17.828715374947606 43.836170891273305 -4.2665503441487775 -4.776143208237674 -1.3822596654431312
lfemur -13.650239292802368 -1.8145651164132972 -22.25926587711645
ltibia 33.25930914413926
lfoot -6.057406280533254 1.3536771978251718
ltoes -4.9757853869038
rfemur -11.98835868409614 2.2193276700999114 23.513393252976915
rtibia 47.09270002368397
rfoot -3.393814792802541 -4.879589009314578
rtoes 4.180106370122098
lowerback 9.967021411268755 1.4290260404681843 0.7233894173196734
upperback 0.5867395671933687 2.78877890314884 0.9301792591949325
thorax -4.942502789713423 0.9781764839556244 0.25469194871600676
lowerneck -16.65375774558838 -2.8412768633502075 -1.9014371149430997
upperneck 19.907671573763533 -3.5593020061773606 1.5783217231783746
head 9.185594082422229 -1.8001613699877441 0.3054778411830362
lclavicle -1.9521159855937687e-15 9.078050100533132e-16
lhumerus -36.74445119425557 6.529661534098432 81.38799334979169
lradius 22.56125368617716
lwrist 3.877949249854388
lhand -26.97283248546423 23.71682815601561
lfingers 7.12502
lthumb -0.23184339154013356 54.35460462394731
rclavicle -1.953474434027362e-15 9.06553892949782e-16
rhumerus -27.453213409184713 -17.78864483788413 -80.42375709282805
rradius 26.34667649056129
rwrist 4.627210149229128
rhand -17.841492428795142 22.626523743720565
rfingers 7.12502
rthumb 8.454438657147186 -7.144877766234904
93
root 0.2122898167066892 17.8370057721941 44.153094358281635 -4.332052282238405 -4.020846530903775 -0.9183444262205378
lfemur -10.598923663584458 -2.1020287580245918 -23.205495223343732
ltibia 32.200002825146385
lfoot -6.279369678998485 1.2878159500712456
ltoes -4.91395108406854
rfemur -15.327627376888236 1.9404717472803563 22.443028080664885
rtibia 45.59256822639752
rfoot -3.663325133110118 -5.073606330879841
rtoes 4.180408777309668
lowerback 10.066566438283132 1.192911923121739 0.30501381448199794
upperback 0.6482521574306555 2.39298256087484 0.8859552953222338
thorax -4.931125967471401 0.8236388039260714 0.5739536819357669
lowerneck -16.636199624847826 -2.842234533661926 -1.9045783012433408
upperneck 19.871537475018783 -3.568848045538612 1.5533327552396936
head 9.19514474309358 -1.791460817552508 0.31829777383797603
lclavicle -1.9521159855937683e-15 9.078050100533134e-16
lhumerus -35.55667925633261 5.312446271448852 81.8481891492899
lradius 22.848055778430748
lwrist 4.120650678113837
lhand -26.976096014425522 23.71684598463475
lfingers 7.12502
lthumb -0.22454058190862453 54.379404658576455
rclavicle -1.953474434027362e-15 9.06553892949782e-16
rhumerus -27.96816552385327 -18.043411140862244 -80.1600507680267
rradius 26.37160802580754
rwrist 4.53379119191391
rhand -17.812710353028958 22.6994466259445
rfingers 7.12502
rthumb 8.46925941640319 -7.113809184563208
94
root 0.2026012807633619 17.82888167948367 44.48620393331342 -4.273303102132154 -3.2476626571315386 -0.48438307411625314
lfemur -8.095387513749898 -2.620527654937312 -24.024709879769233
ltibia 30.901189930912505
lfoot -6.155213659990765 1.1927852736280258
ltoes -5.135109298736078
rfemur -17.64634464654481 2.0122023027837055 21.73392042724816
rtibia 43.41839510943011
rfoot -3.9915596298338727 -5.237380939378002
rtoes 4.414980096260648
lowerback 10.107215561308426 0.9240563124550917 -0.1921312252366083
upperback 0.7150598327953183 1.9997547013700792 0.9135577290002743
thorax -4.8917148113227045 0.7079601204252096 0.9527806775455403
lowerneck -16.611591328958873 -2.829075337145237 -1.8756740160554255
upperneck 19.851573123899616 -3.570732269190182 1.5446358161455565
head 9.201091698786765 -1.7822219708241516 0.3274773509194008
lclavicle -1.9521159855937687e-15 9.078050100533132e-16
lhumerus -34.05947388265644 3.9386770605169446 82.28644004424297
lradius 23.172143144798078
lwrist 4.312633032542135
lhand -26.995985998701748 23.672277922957804
lfingers 7.12502
lthumb -0.2583264210352438 54.29755624343949
rclavicle -1.953474434027362e-15 9.06553892949782e-16
rhumerus -28.492082722594763 -18.164643052260544 -79.93186354054441
rradius 26.399735222634217
rwrist 4.734898146216573
rhand -17.803204742064185 22.707173993946125
rfingers 7.12502
rthumb 8.470441706443445 -7.102262462228168
